<svg xmlns="http://www.w3.org/2000/svg" xmlns:xlink="http://www.w3.org/1999/xlink" fill="none" version="1.1" width="33" height="33" viewBox="0 0 33 33"><g><path d="M19.98,10.7102Q20.0043,10.7851,20.04,10.8552Q20.0757,10.9253,20.122,10.989Q20.1683,11.0527,20.2239,11.1083Q20.2796,11.164,20.3432,11.2102Q20.4069,11.2565,20.477,11.2922Q20.5472,11.328,20.622,11.3523Q20.6969,11.3766,20.7746,11.3889Q20.8523,11.4012,20.931,11.4012L29.1147,11.4012Q29.154,11.4012,29.1932,11.4043Q29.2324,11.4074,29.2712,11.4135Q29.31,11.4197,29.3482,11.4289Q29.3864,11.438,29.4238,11.4502Q29.4611,11.4623,29.4974,11.4773Q29.5337,11.4924,29.5687,11.5102Q29.6038,11.528,29.6373,11.5486Q29.6708,11.5691,29.7025,11.5922Q29.7343,11.6153,29.7642,11.6408Q29.7941,11.6663,29.8219,11.6941Q29.8496,11.7219,29.8752,11.7518Q29.9007,11.7816,29.9238,11.8134Q29.9469,11.8452,29.9674,11.8787Q29.9879,11.9122,30.0058,11.9472Q30.0236,11.9822,30.0386,12.0185Q30.0537,12.0548,30.0658,12.0922Q30.0779,12.1296,30.0871,12.1678Q30.0963,12.206,30.1024,12.2448Q30.1086,12.2836,30.1117,12.3228Q30.1148,12.3619,30.1147,12.4012Q30.1148,12.4405,30.1117,12.4797Q30.1086,12.5188,30.1024,12.5577Q30.0963,12.5965,30.0871,12.6347Q30.0779,12.6729,30.0658,12.7102Q30.0537,12.7476,30.0386,12.7839Q30.0236,12.8202,30.0058,12.8552Q29.9879,12.8902,29.9674,12.9237Q29.9469,12.9572,29.9238,12.989Q29.9007,13.0208,29.8752,13.0507Q29.8496,13.0805,29.8219,13.1083Q29.7941,13.1361,29.7642,13.1616Q29.7343,13.1871,29.7025,13.2102L23.0818,18.0205Q23.0181,18.0668,22.9624,18.1224Q22.9068,18.1781,22.8605,18.2417Q22.8143,18.3054,22.7785,18.3755Q22.7428,18.4457,22.7185,18.5205Q22.6942,18.5954,22.6819,18.6731Q22.6695,18.7508,22.6695,18.8295Q22.6695,18.9082,22.6819,18.986Q22.6942,19.0637,22.7185,19.1385L25.2474,26.9217Q25.2595,26.9591,25.2687,26.9973Q25.2779,27.0355,25.284,27.0743Q25.2902,27.1131,25.2933,27.1523Q25.2963,27.1915,25.2963,27.2307Q25.2963,27.27,25.2933,27.3092Q25.2902,27.3484,25.284,27.3872Q25.2779,27.426,25.2687,27.4642Q25.2595,27.5024,25.2474,27.5398Q25.2353,27.5771,25.2202,27.6134Q25.2052,27.6497,25.1874,27.6847Q25.1695,27.7197,25.149,27.7532Q25.1285,27.7867,25.1054,27.8185Q25.0823,27.8503,25.0568,27.8802Q25.0312,27.9101,25.0035,27.9379Q24.9757,27.9656,24.9458,27.9912Q24.9159,28.0167,24.8841,28.0398Q24.8523,28.0629,24.8188,28.0834Q24.7853,28.1039,24.7503,28.1218Q24.7153,28.1396,24.679,28.1546Q24.6427,28.1697,24.6054,28.1818Q24.568,28.1939,24.5298,28.2031Q24.4916,28.2123,24.4528,28.2184Q24.414,28.2246,24.3748,28.2277Q24.3356,28.2307,24.2963,28.2307Q24.2571,28.2307,24.2179,28.2277Q24.1787,28.2246,24.1399,28.2184Q24.1011,28.2123,24.0629,28.2031Q24.0247,28.1939,23.9873,28.1818Q23.95,28.1697,23.9137,28.1546Q23.8774,28.1396,23.8424,28.1218Q23.8073,28.1039,23.7738,28.0834Q23.7403,28.0629,23.7086,28.0398L17.0878,23.2295Q17.0241,23.1832,16.954,23.1475Q16.8839,23.1118,16.809,23.0875Q16.7342,23.0631,16.6564,23.0508Q16.5787,23.0385,16.5,23.0385Q16.4213,23.0385,16.3436,23.0508Q16.2658,23.0631,16.191,23.0875Q16.1161,23.1118,16.046,23.1475Q15.9759,23.1832,15.9122,23.2295L9.29144,28.0398Q9.25966,28.0629,9.22616,28.0834Q9.19266,28.1039,9.15765,28.1218Q9.12264,28.1396,9.08634,28.1546Q9.05004,28.1697,9.01267,28.1818Q8.97531,28.1939,8.9371,28.2031Q8.8989,28.2123,8.86009,28.2184Q8.82129,28.2246,8.78212,28.2277Q8.74295,28.2307,8.70366,28.2307Q8.66437,28.2307,8.6252,28.2277Q8.58603,28.2246,8.54722,28.2184Q8.50842,28.2123,8.47021,28.2031Q8.43201,28.1939,8.39464,28.1818Q8.35727,28.1697,8.32098,28.1546Q8.28468,28.1396,8.24967,28.1218Q8.21466,28.1039,8.18116,28.0834Q8.14766,28.0629,8.11587,28.0398Q8.08409,28.0167,8.05421,27.9912Q8.02433,27.9656,7.99655,27.9379Q7.96877,27.9101,7.94325,27.8802Q7.91773,27.8503,7.89464,27.8185Q7.87155,27.7867,7.85102,27.7532Q7.83049,27.7197,7.81265,27.6847Q7.79481,27.6497,7.77978,27.6134Q7.76474,27.5771,7.7526,27.5398Q7.74046,27.5024,7.73129,27.4642Q7.72212,27.426,7.71597,27.3872Q7.70982,27.3484,7.70674,27.3092Q7.70366,27.27,7.70366,27.2307Q7.70366,27.1915,7.70674,27.1523Q7.70982,27.1131,7.71597,27.0743Q7.72212,27.0355,7.73129,26.9973Q7.74046,26.9591,7.7526,26.9217L10.2815,19.1385Q10.3058,19.0637,10.3181,18.986Q10.3305,18.9082,10.3305,18.8295Q10.3305,18.7508,10.3181,18.6731Q10.3058,18.5954,10.2815,18.5205Q10.2572,18.4457,10.2215,18.3755Q10.1857,18.3054,10.1395,18.2417Q10.0932,18.1781,10.0376,18.1224Q9.98191,18.0668,9.91824,18.0205L3.29747,13.2102Q3.26568,13.1871,3.2358,13.1616Q3.20593,13.1361,3.17814,13.1083Q3.15036,13.0805,3.12485,13.0507Q3.09933,13.0208,3.07623,12.989Q3.05314,12.9572,3.03261,12.9237Q3.01208,12.8902,2.99424,12.8552Q2.97641,12.8202,2.96137,12.7839Q2.94634,12.7476,2.93419,12.7102Q2.92205,12.6729,2.91288,12.6347Q2.90371,12.5965,2.89756,12.5577Q2.89142,12.5189,2.88833,12.4797Q2.88525,12.4405,2.88525,12.4012Q2.88525,12.3619,2.88833,12.3228Q2.89142,12.2836,2.89756,12.2448Q2.90371,12.206,2.91288,12.1678Q2.92205,12.1296,2.93419,12.0922Q2.94634,12.0548,2.96137,12.0185Q2.97641,11.9822,2.99425,11.9472Q3.01208,11.9122,3.03261,11.8787Q3.05314,11.8452,3.07623,11.8134Q3.09933,11.7817,3.12485,11.7518Q3.15036,11.7219,3.17814,11.6941Q3.20593,11.6663,3.2358,11.6408Q3.26568,11.6153,3.29747,11.5922Q3.32925,11.5691,3.36275,11.5486Q3.39625,11.5281,3.43126,11.5102Q3.46627,11.4924,3.50257,11.4773Q3.53887,11.4623,3.57623,11.4502Q3.6136,11.438,3.65181,11.4289Q3.69001,11.4197,3.72882,11.4135Q3.76762,11.4074,3.80679,11.4043Q3.84596,11.4012,3.88525,11.4012L12.069,11.4012Q12.1477,11.4012,12.2254,11.3889Q12.3031,11.3766,12.378,11.3523Q12.4528,11.328,12.523,11.2922Q12.5931,11.2565,12.6568,11.2102Q12.7204,11.164,12.7761,11.1083Q12.8317,11.0527,12.878,10.989Q12.9243,10.9253,12.96,10.8552Q12.9957,10.7851,13.02,10.7102L15.5489,2.92705Q15.5611,2.88968,15.5761,2.85339Q15.5912,2.81709,15.609,2.78208Q15.6268,2.74707,15.6474,2.71357Q15.6679,2.68007,15.691,2.64828Q15.7141,2.6165,15.7396,2.58662Q15.7651,2.55674,15.7929,2.52896Q15.8207,2.50118,15.8506,2.47566Q15.8804,2.45015,15.9122,2.42705Q15.944,2.40396,15.9775,2.38343Q16.011,2.3629,16.046,2.34506Q16.081,2.32723,16.1173,2.31219Q16.1536,2.29715,16.191,2.28501Q16.2284,2.27287,16.2666,2.2637Q16.3048,2.25453,16.3436,2.24838Q16.3824,2.24223,16.4215,2.23915Q16.4607,2.23607,16.5,2.23607Q16.5393,2.23607,16.5785,2.23915Q16.6176,2.24223,16.6564,2.24838Q16.6952,2.25453,16.7334,2.2637Q16.7717,2.27287,16.809,2.28501Q16.8464,2.29715,16.8827,2.31219Q16.919,2.32723,16.954,2.34506Q16.989,2.3629,17.0225,2.38343Q17.056,2.40396,17.0878,2.42705Q17.1196,2.45015,17.1494,2.47566Q17.1793,2.50118,17.2071,2.52896Q17.2349,2.55674,17.2604,2.58662Q17.2859,2.6165,17.309,2.64828Q17.3321,2.68007,17.3526,2.71357Q17.3732,2.74707,17.391,2.78208Q17.4088,2.81709,17.4239,2.85339Q17.4389,2.88968,17.4511,2.92705L19.98,10.7102Z" fill="#FCE14C" fill-opacity="1"/></g></svg>