<?xml version="1.0" standalone="no"?>
<svg xmlns:xlink="http://www.w3.org/1999/xlink" id="wave" style="transform:rotate(180deg); transition: 0.3s" viewBox="0 0 1440 100" version="1.1" xmlns="http://www.w3.org/2000/svg"><defs><linearGradient id="sw-gradient-0" x1="0" x2="0" y1="1" y2="0"><stop stop-color="rgba(38, 44, 56, 1)" offset="0%"/><stop stop-color="rgba(18.57, 18.155, 17.236, 1)" offset="100%"/></linearGradient></defs><path style="transform:translate(0, 0px); opacity:1" fill="url(#sw-gradient-0)" d="M0,70L21.8,60C43.6,50,87,30,131,21.7C174.5,13,218,17,262,23.3C305.5,30,349,40,393,48.3C436.4,57,480,63,524,56.7C567.3,50,611,30,655,30C698.2,30,742,50,785,58.3C829.1,67,873,63,916,55C960,47,1004,33,1047,25C1090.9,17,1135,13,1178,23.3C1221.8,33,1265,57,1309,60C1352.7,63,1396,47,1440,45C1483.6,43,1527,57,1571,56.7C1614.5,57,1658,43,1702,40C1745.5,37,1789,43,1833,48.3C1876.4,53,1920,57,1964,50C2007.3,43,2051,27,2095,25C2138.2,23,2182,37,2225,48.3C2269.1,60,2313,70,2356,65C2400,60,2444,40,2487,33.3C2530.9,27,2575,33,2618,43.3C2661.8,53,2705,67,2749,71.7C2792.7,77,2836,73,2880,60C2923.6,47,2967,23,3011,18.3C3054.5,13,3098,27,3120,33.3L3141.8,40L3141.8,100L3120,100C3098.2,100,3055,100,3011,100C2967.3,100,2924,100,2880,100C2836.4,100,2793,100,2749,100C2705.5,100,2662,100,2618,100C2574.5,100,2531,100,2487,100C2443.6,100,2400,100,2356,100C2312.7,100,2269,100,2225,100C2181.8,100,2138,100,2095,100C2050.9,100,2007,100,1964,100C1920,100,1876,100,1833,100C1789.1,100,1745,100,1702,100C1658.2,100,1615,100,1571,100C1527.3,100,1484,100,1440,100C1396.4,100,1353,100,1309,100C1265.5,100,1222,100,1178,100C1134.5,100,1091,100,1047,100C1003.6,100,960,100,916,100C872.7,100,829,100,785,100C741.8,100,698,100,655,100C610.9,100,567,100,524,100C480,100,436,100,393,100C349.1,100,305,100,262,100C218.2,100,175,100,131,100C87.3,100,44,100,22,100L0,100Z"/></svg>